<?xml version="1.0" encoding="utf-8"?>
<!-- Generator: Adobe Illustrator 18.0.0, SVG Export Plug-In . SVG Version: 6.00 Build 0)  -->
<!DOCTYPE svg PUBLIC "-//W3C//DTD SVG 1.1//EN" "http://www.w3.org/Graphics/SVG/1.1/DTD/svg11.dtd">
<svg version="1.1" id="Слой_1" xmlns="http://www.w3.org/2000/svg" xmlns:xlink="http://www.w3.org/1999/xlink" x="0px" y="0px"
	 viewBox="0 0 160.8 422.8" enable-background="new 0 0 160.8 422.8" xml:space="preserve">
<line fill="none" stroke="#0D0F0F" stroke-miterlimit="10" x1="77.9" y1="421.6" x2="159.7" y2="421.6"/>
<line fill="none" stroke="#0D0F0F" stroke-miterlimit="10" x1="77.9" y1="420" x2="146.7" y2="420"/>
<line fill="none" stroke="#0D0F0F" stroke-miterlimit="10" x1="77.9" y1="397.5" x2="124.1" y2="397.5"/>
<line fill="none" stroke="#0D0F0F" stroke-miterlimit="10" x1="77.9" y1="401.3" x2="127.9" y2="401.3"/>
<line fill="none" stroke="#0D0F0F" stroke-miterlimit="10" x1="146.7" y1="420" x2="124.1" y2="397.5"/>
<line fill="none" stroke="#0D0F0F" stroke-miterlimit="10" x1="141.3" y1="421.6" x2="141.3" y2="420"/>
<line fill="none" stroke="#0D0F0F" stroke-miterlimit="10" x1="77.9" y1="421.6" x2="1.6" y2="421.6"/>
<line fill="none" stroke="#0D0F0F" stroke-miterlimit="10" x1="77.9" y1="420" x2="9.2" y2="420"/>
<line fill="none" stroke="#0D0F0F" stroke-miterlimit="10" x1="77.9" y1="397.5" x2="31.7" y2="397.5"/>
<line fill="none" stroke="#0D0F0F" stroke-miterlimit="10" x1="77.9" y1="401.3" x2="27.9" y2="401.3"/>
<line fill="none" stroke="#0D0F0F" stroke-miterlimit="10" x1="1.6" y1="421.6" x2="1.6" y2="1.6"/>
<line fill="none" stroke="#0D0F0F" stroke-miterlimit="10" x1="9.2" y1="420" x2="9.2" y2="9.2"/>
<line fill="none" stroke="#0D0F0F" stroke-miterlimit="10" x1="31.7" y1="397.5" x2="31.7" y2="216.3"/>
<line fill="none" stroke="#0D0F0F" stroke-miterlimit="10" x1="31.7" y1="213.6" x2="31.7" y2="31.7"/>
<line fill="none" stroke="#0D0F0F" stroke-miterlimit="10" x1="27.9" y1="401.3" x2="27.9" y2="216.3"/>
<line fill="none" stroke="#0D0F0F" stroke-miterlimit="10" x1="27.9" y1="213.6" x2="27.9" y2="27.9"/>
<line fill="none" stroke="#0D0F0F" stroke-miterlimit="10" x1="159.7" y1="421.6" x2="159.7" y2="1.6"/>
<line fill="none" stroke="#0D0F0F" stroke-miterlimit="10" x1="152.1" y1="421.4" x2="152.1" y2="7.8"/>
<line fill="none" stroke="#0D0F0F" stroke-miterlimit="10" x1="129.6" y1="402.9" x2="129.6" y2="31.7"/>
<line fill="none" stroke="#0D0F0F" stroke-miterlimit="10" x1="133.4" y1="406.8" x2="133.4" y2="27.9"/>
<line fill="none" stroke="#0D0F0F" stroke-miterlimit="10" x1="159.7" y1="1.6" x2="83.4" y2="1.6"/>
<line fill="none" stroke="#0D0F0F" stroke-miterlimit="10" x1="152.1" y1="9.2" x2="83.4" y2="9.2"/>
<line fill="none" stroke="#0D0F0F" stroke-miterlimit="10" x1="129.6" y1="31.7" x2="83.4" y2="31.7"/>
<line fill="none" stroke="#0D0F0F" stroke-miterlimit="10" x1="133.4" y1="27.9" x2="83.4" y2="27.9"/>
<line fill="none" stroke="#0D0F0F" stroke-miterlimit="10" x1="159.7" y1="1.6" x2="129.6" y2="31.7"/>
<line fill="none" stroke="#0D0F0F" stroke-miterlimit="10" x1="1.6" y1="1.6" x2="83.4" y2="1.6"/>
<line fill="none" stroke="#0D0F0F" stroke-miterlimit="10" x1="9.2" y1="9.2" x2="84.4" y2="9.2"/>
<line fill="none" stroke="#0D0F0F" stroke-miterlimit="10" x1="31.7" y1="31.7" x2="83.4" y2="31.7"/>
<line fill="none" stroke="#0D0F0F" stroke-miterlimit="10" x1="27.9" y1="27.9" x2="83.4" y2="27.9"/>
<line fill="none" stroke="#0D0F0F" stroke-miterlimit="10" x1="1.6" y1="1.6" x2="31.7" y2="31.7"/>
<line fill="none" stroke="#0D0F0F" stroke-miterlimit="10" x1="9.2" y1="420" x2="31.7" y2="397.5"/>
<line fill="none" stroke="#0D0F0F" stroke-miterlimit="10" x1="14.5" y1="421.6" x2="14.5" y2="420"/>
<line fill="none" stroke="#0D0F0F" stroke-miterlimit="10" x1="20.4" y1="220.8" x2="17.6" y2="220.8"/>
<line fill="none" stroke="#0D0F0F" stroke-miterlimit="10" x1="17.4" y1="208.8" x2="20.8" y2="208.8"/>
<path fill="none" stroke="#0D0F0F" stroke-miterlimit="10" d="M21.8,209.7c0-0.5-0.4-1-1-1"/>
<line fill="none" stroke="#0D0F0F" stroke-miterlimit="10" x1="20.8" y1="220.8" x2="20.4" y2="220.8"/>
<line fill="none" stroke="#0D0F0F" stroke-miterlimit="10" x1="17.6" y1="220.8" x2="17.4" y2="220.8"/>
<path fill="none" stroke="#0D0F0F" stroke-miterlimit="10" d="M20.8,220.8c0.5,0,1-0.4,1-1"/>
<path fill="none" stroke="#0D0F0F" stroke-miterlimit="10" d="M16.4,219.8c0,0.5,0.4,1,1,1"/>
<path fill="none" stroke="#0D0F0F" stroke-miterlimit="10" d="M17.4,208.8c-0.5,0-1,0.4-1,1"/>
<path fill="none" stroke="#0D0F0F" stroke-miterlimit="10" d="M16.4,209.7c-1,3.4-1,7,0,10.3"/>
<path fill="none" stroke="#0D0F0F" stroke-miterlimit="10" d="M21.7,220c0.4-1.2,0.6-2.4,0.7-3.7"/>
<path fill="none" stroke="#0D0F0F" stroke-miterlimit="10" d="M22.5,213.6c-0.1-1.3-0.3-2.6-0.7-3.9"/>
<line fill="none" stroke="#0D0F0F" stroke-miterlimit="10" x1="17.8" y1="216.3" x2="39.6" y2="216.3"/>
<path fill="none" stroke="#0D0F0F" stroke-miterlimit="10" d="M17.3,215.8c0,0.3,0.3,0.6,0.6,0.6"/>
<line fill="none" stroke="#0D0F0F" stroke-miterlimit="10" x1="40.2" y1="215.8" x2="40.2" y2="214.2"/>
<path fill="none" stroke="#0D0F0F" stroke-miterlimit="10" d="M39.6,216.3c0.3,0,0.6-0.3,0.6-0.6"/>
<line fill="none" stroke="#0D0F0F" stroke-miterlimit="10" x1="17.3" y1="215.8" x2="17.3" y2="214.2"/>
<line fill="none" stroke="#0D0F0F" stroke-miterlimit="10" x1="17.8" y1="213.6" x2="39.6" y2="213.6"/>
<path fill="none" stroke="#0D0F0F" stroke-miterlimit="10" d="M17.8,213.6c-0.3,0-0.6,0.3-0.6,0.6"/>
<line fill="none" stroke="#0D0F0F" stroke-miterlimit="10" x1="40.2" y1="214.2" x2="40.2" y2="215.8"/>
<path fill="none" stroke="#0D0F0F" stroke-miterlimit="10" d="M40.2,214.2c0-0.3-0.3-0.6-0.6-0.6"/>
<line fill="none" stroke="#0D0F0F" stroke-miterlimit="10" x1="17.3" y1="214.2" x2="17.3" y2="215.8"/>
<ellipse fill="none" stroke="#0D0F0F" stroke-miterlimit="10" cx="18.9" cy="233.7" rx="2.3" ry="4.2"/>
</svg>
